<svg xmlns="http://www.w3.org/2000/svg" viewBox="0 0 100 100" fill="none" stroke="currentColor" stroke-width="4" stroke-linejoin="round" stroke-linecap="round" aria-hidden="true">
  <path d="M 50 50 C 30 40, 30 20, 50 10 C 70 20, 70 40, 50 50 Z"/>
  <path d="M 50 50 C 30 40, 30 20, 50 10 C 70 20, 70 40, 50 50 Z" transform="rotate(60 50 50)"/>
  <path d="M 50 50 C 30 40, 30 20, 50 10 C 70 20, 70 40, 50 50 Z" transform="rotate(120 50 50)"/>
  <path d="M 50 50 C 30 40, 30 20, 50 10 C 70 20, 70 40, 50 50 Z" transform="rotate(180 50 50)"/>
  <path d="M 50 50 C 30 40, 30 20, 50 10 C 70 20, 70 40, 50 50 Z" transform="rotate(240 50 50)"/>
  <path d="M 50 50 C 30 40, 30 20, 50 10 C 70 20, 70 40, 50 50 Z" transform="rotate(300 50 50)"/>
</svg>
